<?xml version="1.0" encoding="UTF-8"?><svg id="Layer_1" xmlns="http://www.w3.org/2000/svg" viewBox="0 0 21.99 21.83"><defs><style>.cls-1{fill:none;stroke:#000;stroke-miterlimit:10;stroke-width:2px;}</style></defs><path class="cls-1" d="m10.07,3.07c-.03-.09-.17-.1-.2,0-.43,1.23-2.12,6.07-2.68,6.83-.38.51-4.78,1.35-6.11,1.6-.1.02-.11.15-.01.19,1.27.42,5.52,1.87,6.12,2.52.64.68,2.27,5.37,2.68,6.57.03.09.16.09.19,0,.42-1.22,2.08-5.99,2.53-6.57.55-.7,4.87-2.11,6.16-2.52.1-.03.09-.17-.01-.19-1.32-.26-5.68-1.14-6.15-1.59-.34-.33-2.1-5.52-2.53-6.82Z"/><path d="m18.67.34c-.17-.45-.87-.46-1.05,0-.39.98-.89,2.17-1.1,2.44-.12.15-.97.36-1.84.54-.54.11-.59.79-.07.97.85.29,1.72.62,1.91.81.24.24.73,1.38,1.11,2.32.18.45.87.45,1.05,0,.38-.96.85-2.12,1.03-2.32s1.05-.54,1.92-.83c.52-.17.47-.86-.07-.97-.86-.18-1.7-.38-1.86-.52-.13-.12-.64-1.39-1.03-2.43Z"/></svg>