<?xml version="1.0" encoding="utf-8"?>
<!-- Generator: Adobe Illustrator 27.5.0, SVG Export Plug-In . SVG Version: 6.00 Build 0)  -->
<svg version="1.1" id="Layer_1" xmlns="http://www.w3.org/2000/svg" xmlns:xlink="http://www.w3.org/1999/xlink" x="0px" y="0px"
	 viewBox="0 0 130 14" style="enable-background:new 0 0 130 14;" xml:space="preserve">
<style type="text/css">
	.st0{fill-rule:evenodd;clip-rule:evenodd;fill:#4F19C4;}
</style>
<path class="st0" d="M17.5,0l-3.3,8l-3.3-8H8.8l3.6,8.7c0.3,0.7,1,1.2,1.8,1.2c0.8,0,1.5-0.5,1.8-1.2L19.7,0H17.5z M19,12.1L25,6
	l-0.8-2l-6.6,6.7c-0.6,0.6-0.7,1.4-0.4,2.1c0.3,0.7,1,1.2,1.8,1.2l0,0l9.5,0l-0.8-2L19,12.1L19,12.1z M3.4,6l0.8-2l6.6,6.7
	c0.6,0.6,0.7,1.4,0.4,2.1c-0.3,0.7-1,1.2-1.8,1.2L0,14l0,0l0.8-2l8.7,0L3.4,6z"/>
<path d="M36,13.3L36,13.3l1.6,0V7.7h5.3V6.2h-5.3V2.5h5.8V1.1H36V13.3z"/>
<path d="M46.7,4.5h-1.5v8.8h1.5V4.5z"/>
<path d="M50.5,5.6L50.5,5.6c0,0.1-0.1,0.1-0.2,0.1c-0.1,0-0.1,0-0.1-0.1V4.5h-1.5v8.8h1.5v-5c0-1.7,0.8-2.3,2.3-2.3h1.2V4.4h-1
	C51.5,4.4,50.9,4.8,50.5,5.6z"/>
<path d="M58.8,12.2c-1.6,0-2.9-0.9-3-2.9H63V8.5c0-2.5-1.5-4.2-4.2-4.2c-2.7,0-4.5,1.8-4.5,4.7s1.7,4.7,4.5,4.7s4-1.7,4.2-3h-1.6
	C61.2,11.5,60.5,12.2,58.8,12.2z M58.8,5.5c1.6,0,2.6,0.9,2.7,2.5h-5.6C56.1,6.4,57.3,5.5,58.8,5.5z"/>
<path d="M73.8,11.6c0,0.2-0.1,0.2-0.2,0.2s-0.2-0.1-0.2-0.2l-1.7-7.2h-2.6l-1.7,7.2c0,0.2-0.1,0.2-0.2,0.2S67,11.8,67,11.6l-1.7-7.2
	h-1.5v0.3h0l2.1,8.5h2.6l1.8-7.4c0-0.1,0.1-0.2,0.2-0.2c0.1,0,0.1,0,0.2,0.2l1.8,7.4H75L77,4.8V4.5h-1.5L73.8,11.6z"/>
<path d="M82.4,4.2c-2.6,0-4.6,1.6-4.6,4.7s2,4.7,4.6,4.7S87,11.9,87,8.9S84.9,4.2,82.4,4.2z M82.4,12.2c-1.8,0-3.1-1.2-3.1-3.3
	s1.3-3.3,3.1-3.3s3.1,1.2,3.1,3.3S84.2,12.2,82.4,12.2z"/>
<path d="M90.4,5.6c0,0.1-0.1,0.1-0.2,0.1c-0.1,0-0.1,0-0.1-0.1V4.5h-1.5v8.8h1.5v-5c0-1.7,0.8-2.3,2.3-2.3h1.2V4.4h-1
	C91.4,4.4,90.8,4.8,90.4,5.6z"/>
<path d="M96.3,8.6V1.1h-1.5v12.2h1.5v-2.8L98,9.1l3.3,4.2h1.7v-0.3l-3.8-4.8l3.8-3.3V4.5h-2L96.3,8.6z"/>
<path d="M108.2,8.2L107,8c-1.2-0.2-1.7-0.5-1.7-1.2s0.6-1.3,2-1.3c1.4,0,2.2,0.5,2.4,1.7h1.6c-0.2-2.1-1.8-3-3.9-3s-3.6,0.9-3.6,2.6
	s1.2,2.3,2.9,2.6l1.3,0.2c1.2,0.2,1.8,0.5,1.8,1.3c0,0.8-0.6,1.3-2.1,1.3c-1.5,0-2.5-0.6-2.6-1.8h-1.6c0.1,2.1,1.9,3.1,4.1,3.1
	s3.6-1,3.6-2.7S109.8,8.5,108.2,8.2z"/>
<path d="M129.9,1.1h-1.7v12.2h1.7V1.1z"/>
<path d="M119.9,1.2l-4.8,11.8v0.2h1.7l1.2-3.2h5.7l1.2,3.2h1.7v-0.2l-4.8-12h-2V1.2z M118.6,8.6l2-5.4h0c0-0.1,0.1-0.2,0.2-0.2h0.1
	c0.1,0,0.2,0.1,0.2,0.2l2,5.4H118.6z"/>
<path d="M46.7,1.1h-1.5v1.8h1.5V1.1z"/>
</svg>
